<?xml version="1.0" encoding="utf-8"?>
<!-- Generator: Adobe Illustrator 19.2.0, SVG Export Plug-In . SVG Version: 6.00 Build 0)  -->
<svg version="1.1" id="Capa_1" xmlns="http://www.w3.org/2000/svg" xmlns:xlink="http://www.w3.org/1999/xlink" x="0px" y="0px"
	 viewBox="0 0 2800 1555" enable-background="new 0 0 2800 1555" xml:space="preserve">
<path fill="#53456A" d="M268.5,1290.3c2.2-1.5,4.7-1.8,7.3-1.8c32.5,0.1,65,0.1,97.4,0c7.2,0,5.8,0.8,7.9-5.6
	c5.1-15.7,10.1-31.3,15.2-47c0.6-1.8,1.1-3.7,1.9-5.4c3.1-6.4,8.2-10,15.5-10.4c0.6,0,1.3-0.1,1.9,0c1.6,0.1,2.6-0.5,3.2-2.1
	c4.1-10.7,12-17.2,22.7-20.3c14.2-4.1,28.2-3.1,41.6,3.2c4.5,2.1,8.6,5,12.1,8.5c0.8,0.8,1.6,0.9,2.5,0.1c0.4-0.3,0.7-0.6,1.1-0.9
	c4.2-3.4,9.1-5.3,14.4-6c5.5-0.8,10.9-0.2,16.1,1.5c6.7,2.3,11.6,6.6,13.6,13.7c0.5,1.6,1.4,2.2,3,2.4c8,0.8,13.2,5.2,15.7,12.8
	c3.1,9.2,6,18.6,9,27.8c2.6,8.1,5.1,16.2,7.8,24.2c1.2,3.6,0.6,3.6,5,3.6c2.9,0,5.8,0,8.6,0c3.9,0,4,0,5.2-4c3-9.3,6-18.6,9-27.8
	c2.5-7.9,5.1-15.8,7.7-23.7c2-6,5.9-10.1,12-12.1c1.7-0.6,3.4-0.7,5.2-0.7c3.5,0,7,0,10.6,0c38.6,0,77.1,0,115.7,0
	c1.4,0,2.9,0,4.3,0c7.9,0.2,13.2,4.1,16.3,11.2c0.8,1.8,1.3,3.6,1.9,5.4c5.1,15.8,10.2,31.6,15.3,47.5c1.5,4.6,0.8,4.2,6,4.2
	c58.2,0,116.5,0,174.7,0c5.3,0,4.9,0.3,4.9-5c0-62.4,0-124.8,0-187.2c0-51.4,0-102.7,0-154.1c0-1.1-0.1-2.2,0-3.4
	c0.3-2.5-0.7-4.6-2.2-6.6c-15.2-21.5-30.4-43.1-45.6-64.7c-0.9-1.3-1.8-2.6-2.6-4c-0.6-1-0.2-2.3,0.7-3c0.9-0.6,2.3-0.6,3.1,0.2
	c1,1.2,2,2.5,2.9,3.8c14.6,20.8,29.3,41.6,43.9,62.4c4.4,6.2,2.2,5,9.6,5.1c17.1,0.1,34.2,0,51.4,0c1.3,0,2.6,0,3.8,0
	c1.8-0.1,2.2-0.4,2.2-2.4c0-6.9,0-13.8,0-20.6c0-1.8-0.7-2.2-2.5-1.7c-3.5,1-7,2.1-10.6,3.1c-1.2,0.4-2.5,0.7-3.7,0.9
	c-1.2,0.2-2.2-0.7-2.5-1.8c-0.2-1.1,0.2-2,1-2.5c0.8-0.5,1.7-0.8,2.6-1c4.4-1.4,8.9-2.7,13.3-4c0.9-0.3,1.9-0.5,2.2-1.6
	c0.6-2.2-0.3-3.5-2.5-3.5c-6.2,0-12.5,0-18.7,0c-1.3,0-2.6,0-3.8-0.2c-1-0.2-1.6-1-1.7-2c-0.1-1.1,0.7-2.4,1.8-2.5
	c1.1-0.2,2.2-0.2,3.3-0.2c5.6,0,11.2,0,16.8,0c1.1,0,2.2,0,3.4-0.1c0.7,0,1.2-0.2,1.4-1c0.3-0.9-0.1-2.2-0.9-2.5
	c-1-0.4-2.1-0.7-3.2-1c-3.7-1.1-7.4-2.1-11-3.3c-1.1-0.3-2.2-0.7-3.1-1.3c-0.8-0.5-1.2-1.5-0.8-2.5c0.3-1,1-1.7,2.1-1.7
	c0.9,0,1.9,0.3,2.8,0.5c4.1,1.2,8.3,2.4,12.4,3.6c1.3,0.4,1.8,0,1.8-1.3c0.1-1.4,0.1-2.9,0.1-4.3c0-19.5,0-39,0-58.6
	c0-1.4,0-2.9,0.2-4.3c0.4-2,2.6-2.7,4.1-1.3c0.9,0.9,1.7,1.9,2.5,2.9c8,9.8,16,19.6,24,29.4c0.8,1,1.6,2,2.5,2.9
	c0.8,0.9,1.4,0.9,2.4-0.1c0.3-0.3,0.6-0.7,0.9-1.1c14.6-16.7,33.1-25.8,55.2-27.3c21.7-1.5,41.1,4.7,57.9,18.6
	c3.7,3.1,7,6.6,10.1,10.3c0.7,0.8,1.4,0.7,2,0c0.6-0.6,1-1.3,1.6-1.8c2.2-2.1,2.8-4.7,2.8-7.8c-0.1-18.9-0.1-37.8,0-56.6
	c0-6.1,1-12.1,3.1-17.9c3.2-8.7,8.7-15.3,17.7-18.2c1.8-0.6,2.2-1.6,2.2-3.1c0-1.1,0-2.2,0-3.4c0-90.4,0-180.8,0-271.2
	c0-0.3,0-0.6,0-1c0.6-3.3-0.9-5.6-3.4-7.8c-6.6-5.9-10.8-13.4-13.2-21.9c-1.1-4-1.1-4-5-2.9c-3.4,1-6.7,2-10.1,3
	c-0.8,0.2-1.6,0.5-2.3,0.5c-1,0-1.8-0.7-2.1-1.7c-0.3-1,0-2,0.8-2.5c0.9-0.6,2-0.9,3.1-1.3c4-1.2,7.9-2.4,11.9-3.6
	c0.8-0.2,1.6-0.4,1.8-1.4c0.2-1.3,0.3-2.6-0.3-3.7c-0.2-0.3-0.8-0.5-1.3-0.5c-2.1-0.1-4.2-0.1-6.2-0.1c-4,0-8,0-12,0
	c-1.1,0-2.2,0-3.3-0.2c-1-0.1-1.7-0.8-1.9-1.9c-0.2-1.2,0.5-2.4,1.6-2.6c1.1-0.2,2.2-0.3,3.3-0.3c5.9,0,11.8,0,17.8,0
	c2.7,0,2.9-0.3,3.3-3c0.1-0.5,0.1-1,0.2-1.4c0.1-1.1-0.5-1.8-1.5-2.1c-4.3-1.3-8.6-2.6-12.8-3.9c-1.1-0.3-2.1-0.6-3.2-1.1
	c-1-0.5-1.5-1.8-1.1-2.9c0.4-1.1,1.5-1.9,2.6-1.7c1.3,0.2,2.5,0.6,3.7,1c3.8,1.1,7.6,2.4,11.5,3.5c2.4,0.7,2.7,0.6,3.7-1.6
	c3.3-7.6,8.2-14.1,14.9-19.1c1.6-1.2,2.1-2.6,2.1-4.5c-0.1-12,0-24,0-36c0-1.3,0-2.6,0-3.8c-0.1-1.5,0.4-2.8,1.2-4c1,0,1.9,0,2.9,0
	c0.4,1.7,1.9,2.5,3,3.5c10.8,10.2,21.7,20.3,32.5,30.4c3.6,3.4,3.6,3.4,7.8,0.6c25.2-16.9,57.3-16.9,82.5,0c0.9,0.6,1.8,1.3,2.7,1.9
	c0.9,0.7,1.8,0.5,2.6-0.3c0.4-0.3,0.7-0.6,1.1-1c12.1-11.1,24.2-22.3,36.3-33.4c0.6-0.5,1.3-0.9,1.4-1.8c1,0,1.9,0,2.9,0
	c1.2,1.9,1,3.9,1,6c0,18.9,0,37.8,0,56.6c0,1.4,0,2.9,0,4.3c0.1,1.2,0.6,1.7,1.9,1.3c3.5-1,7.1-2,10.6-3c0.9-0.3,1.8-0.6,2.8-0.7
	c1-0.1,2.2,0.9,2.4,2c0.2,1.1-0.2,2-1.1,2.4c-1,0.5-2.1,0.9-3.1,1.2c-3.7,1.1-7.4,2.2-11,3.3c-2.5,0.8-2.5,0.9-2.5,3.3
	c0,0.6,0,1.3,0,1.9c0,1.1,0.5,1.8,1.7,1.9c1.1,0,2.2,0.1,3.4,0.1c5.1,0,10.2,0,15.4,0c1.1,0,2.2,0,3.4,0.1c1.1,0.1,2,1.3,2.1,2.3
	c0.1,1.1-0.8,2.2-2,2.3c-1.1,0.1-2.2,0.1-3.4,0.1c-5.3,0-10.6,0-15.8,0c-1.1,0-2.2,0-3.3,0.1c-0.7,0.1-1.1,0.6-1.2,1.3
	c-0.1,0.6,0,1.3-0.1,1.9c0,1.3,0.5,2,1.8,2.4c4,1.2,8,2.4,11.9,3.6c0.9,0.3,1.8,0.6,2.7,1c1.1,0.5,1.6,1.8,1.2,2.8
	c-0.4,1.1-1.5,1.9-2.6,1.7c-1.3-0.2-2.5-0.6-3.7-0.9c-3.1-0.9-6.1-1.9-9.2-2.7c-1.7-0.5-2.1-0.1-2.1,1.5c-0.1,1.6,0,3.2,0,4.8
	c0,10.9,0,21.8,0,32.6c0.1,13,2.9,25.4,9.3,36.8c10.5,18.7,26,30.9,47,35.9c16.5,4,32.6,9.2,47.7,17c19.6,10.1,36.5,23.5,49.8,41.3
	c12.1,16.1,19.9,34.2,24.6,53.7c1.7,7.2,2.8,14.4,3.8,21.7c0.3,2.6,0.4,2.7,2.8,3c3.2,0.4,6.4,0.6,9.5,1.4c23.1,6.1,39.2,20,46.3,43
	c8.5,27.7-4.4,57.5-30.5,71.1c-1.1,0.6-2.3,1.3-3.5,1.6c-2.7,0.7-3.2,2.5-3.1,5.1c0.2,5,0.1,9.9,0.1,14.9c0,65.9,0,131.8,0,197.7
	c0,1.6,0,3.2,0.1,4.8c0,1.2,0.8,1.7,1.8,1.7c1.6,0.1,3.2,0.1,4.8,0.1c73.3,0,146.5,0,219.8,0c6.4,0,6.4,0,10.7,4.7
	c21.8,24.3,43.7,48.5,65.5,72.8c1,1.1,1.9,2.2,2.7,3.4c0.6,0.9,0.2,2.3-0.7,3c-0.9,0.6-1.9,0.7-2.7,0.1c-1.1-0.9-2.1-2-3-3
	c-17.7-19.6-35.3-39.2-53-58.8c-3.3-3.7-6.7-7.4-10-11c-0.3-0.4-0.7-0.6-1.2-0.4c-0.5,0.2-0.5,0.7-0.5,1.2c0,1.1,0,2.2,0,3.4
	c0,39,0,78.1,0,117.1c0,6.3-0.5,5.7,5.6,5.8c16.8,0,33.6,0,50.4,0c6.1,0,6.2,0.1,6.2,6.1c0.1,17,0.2,33.9,0.2,50.9
	c0,2.7,0.1,5.4-0.7,8.1c-1.9,6.6-5.9,11.6-11.8,15.1c-5.1,3-10.6,4.5-16.4,4.9c-2.6,0.2-3.1-0.4-4.2-2.9c-0.7-1.6-0.6-3.1-0.6-4.7
	c0-10.7,0-21.4,0-32.2c0-6.6,0.3-5.7-5.7-5.5c-6.9,0.1-13.7,0.4-20.6,0.7c-2.1,0.1-2.4,0.4-2.5,2.6c0,0.6,0,1.3,0,1.9
	c0,16.6,0,33.3,0,49.9c0,4.1-0.2,4.4,4.1,4.3c19.4-0.1,38.7-0.2,58.1-0.3c11.2-0.1,22.4-0.2,33.6-0.3c24-0.2,48-0.1,72-0.6
	c11.2-0.2,20.7,6.7,24.6,16.6c0.7,1.8,1.3,3.6,1.9,5.4c0.3,0.7,1,0.9,1.5,0.3c0.9-1.1,1.8-2.2,2.7-3.4c1.7-2.2,3.2-4.4,5-6.5
	c4.7-5.6,12.4-5.5,17,0.2c1.2,1.5,2.2,3.2,3.3,4.7c0.6,0.9,1.2,1.9,2,2.7c2.4,2.8,5.8,3,8.4,0.3c1.8-1.8,3.3-3.9,5-5.8
	c1.3-1.6,2.6-3.2,4.1-4.7c3-3.2,6.5-4,10.5-2.2c2,0.9,3.9,2.1,5.9,3.3c3.1,1.9,6.2,4,9.3,5.9c7.5,4.4,15.7,7.2,24.2,8.9
	c0.6,0.1,1.3,0.2,1.9,0.2c0.7,0,1.2-0.3,1.5-1c0.4-1,0.7-2.1,1.1-3.2c7.3-19.3,26-30.1,43.1-29.6c0.3,0,0.6,0,1,0
	c1.9,0,4,0.5,5.7-0.1c1.8-0.6,2.3-2.9,3.7-4.3c5.5-5.7,12.2-8.2,20-6.4c2.6,0.6,4.9,0.7,7.5,0.1c8.3-2,15.3,0.6,20.7,6.9
	c5.3,6.2,6.4,13.4,3.5,21.1c-0.4,1.2-1.1,2.3-1.7,3.5c-0.5,1.1-0.3,1.7,1,2.1c1.2,0.4,2.4,0.7,3.7,1.1c1.2,0.3,2.5,0.9,3.7,0.8
	c1.4-0.1,1.6-1.9,2.3-2.8c3.4-4.2,8.7-5.5,13.3-3c4.3,2.3,6.4,7.4,5.1,12.3c-0.4,1.4-2.1,2.9-1.3,3.9c1.1,1.4,3.3,0.6,5,0.6
	c63.5,0,127,0,190.5,0c2.2,0,4.5-0.4,6.6,0.7c0,1.3,0,2.6,0,3.8c-2.7,0.8-5.4,0.6-8.1,0.6c-535.8,0-1071.5,0-1607.3,0
	c-2.1,0-4.2,0-6.2,0c-1,0-1.9,0-2.9,0.1c-1.1,0.1-1.8,0.5-1.7,1.8c0,0.3,0,0.6,0,1c-0.2,5.8-2.8,8.3-8.7,8.4c-4.6,0.1-9.3,0-13.9,0
	c-9.3,0-18.6,0-27.8,0c-1.3,0-2.6,0.1-3.8,0.3c-1.3,0.3-2.3,1.7-2.1,2.8c0.2,1.2,0.9,2.1,2.1,2.3c0.6,0.1,1.3,0.2,1.9,0.3
	c3.2,0.8,5.5,2.6,6.2,5.9c0.6,3.2-0.2,6-2.9,8.1c-0.7,0.6-1.7,0.9-1.9,2c-13.8,0-27.5,0-41.3,0c-1.1-0.9-2.3-1.8-3.3-2.8
	c-4.1-4.2-2.6-10.8,2.9-12.9c1.2-0.5,2.5-0.6,3.8-0.6c1,0,1.9,0,2.9-0.2c1.1-0.2,2-1.2,2.2-2.3c0.1-1-0.6-2.2-1.6-2.7
	c-1-0.5-2.2-0.5-3.3-0.5c-3.2,0-6.4,0.1-9.6-0.1c-4-0.2-6.8-3-7.2-7c-0.1-0.8,0.1-1.6,0.1-2.4c0-1.4-0.3-1.8-1.6-1.8
	c-1.6-0.1-3.2-0.1-4.8-0.1c-60,0-120,0-180,0c-64.3,0-128.6,0.1-192.9,0.1c-32.8,0-65.6,0-98.4,0c-2.9,0-5.7-0.3-8.3-1.6
	C268.5,1291.6,268.5,1290.9,268.5,1290.3z"/>
<path fill="#D6E9F6" d="M1294.1,690.3c0,26.4,0,52.8,0,79.2c0,1.4,0,2.9,0,4.3c0.1,1.5,0.5,2.1,2,2.1c6.2,0,12.5,0,18.7,0
	c1,0,1.8-0.4,2-1.6c0.2-1.3,0.6-2.5,0.9-3.7c3.8-12,10.7-21,23.3-24.6c1.7-0.5,2.3-1.5,2.6-3c1.1-5.7,2.2-11.3,3.3-16.9
	c4.7-23.4,9.3-46.7,14-70.1c3.2-15.8,6.3-31.7,9.5-47.5c0.2-0.9,0.4-1.9,0.7-2.8c0.4-1.1,1.8-1.7,2.8-1.3c0.9,0.4,1.7,1.1,1.7,2.1
	c-0.1,1.4-0.2,2.9-0.5,4.3c-1.2,6.4-2.5,12.9-3.8,19.3c-7,35.3-14,70.5-21.1,105.8c-0.8,3.9-1.6,7.8-2.4,11.7
	c-0.3,1.4-1.1,2.3-2.5,2.6c-0.9,0.2-1.9,0.4-2.8,0.7c-5.2,1.4-9.7,4.2-13.2,8.3c-3.6,4.2-5.9,9.1-7.2,14.5c-0.4,1.8-0.1,2.2,1.9,2.2
	c8.5,0,17,0,25.4,0c1.9,0,2.2-0.3,2.7-2.1c0.8-2.8,1.7-5.5,3-8.1c4-8.3,10-14.4,19-17.2c0.6-0.2,1.2-0.4,1.8-0.7
	c0.7-0.2,1-0.7,1.1-1.4c0-0.8,0.1-1.6,0.1-2.4c0.1-11.1,1.6-22,4-32.8c4.8-21.7,13.4-41.6,27.5-59c1.4-1.7,2.1-3.5,2.6-5.6
	c2.7-12.3,5.6-24.6,8.4-36.9c0.3-1.4,0.7-2.8,1.2-4.1c0.4-0.9,1.3-1.4,2.3-1.3c1.1,0.1,2.2,1.1,2.1,2.2c0,1.1-0.2,2.2-0.5,3.3
	c-2.2,9.7-4.4,19.3-6.6,29c-0.1,0.6-0.2,1.2-0.3,1.9c0,0.4,0.3,0.6,0.7,0.3c1-0.8,2-1.5,3-2.4c11.2-10,24-17.5,38-23
	c1.3-0.5,2.6-1.3,4.1-1.2c1.1,0,1.8,0.5,2.2,1.5c0.4,1,0.1,1.9-0.6,2.6c-0.4,0.4-1.1,0.7-1.7,0.9c-1.5,0.6-3,1.2-4.4,1.8
	c-24,9.9-42.9,25.8-56.3,48c-11.2,18.7-17.3,39.1-19.8,60.6c-0.7,6.2-1.1,12.4-1,18.7c0,2.8-0.4,3.4-3.2,3.9
	c-11.9,2.5-18.1,10.7-21.4,21.6c-0.3,1,0.1,1.7,1,1.7c5.4,0,10.9,0,16.3,0.1c0.9,0,1.5-0.4,1.8-1.2c0.4-1.1,0.7-2.1,1.1-3.2
	c1.9-5.1,5-9.2,9.4-12.5c0.8-0.6,1.6-1.1,2.5-1.4c1-0.3,1.9,0.1,2.5,1c0.6,0.9,0.7,1.9,0,2.7c-0.7,0.8-1.7,1.5-2.5,2.2
	c-3.4,2.8-6,6.2-7.3,10.5c-0.4,1.2,0.1,1.9,1.3,2c4.5,0,9,0,13.4,0c1.1,0,1.8-0.6,2.2-1.6c0.4-1,0.7-2.1,1.2-3.1
	c2.1-4.8,5.3-8.7,9.7-11.6c0.7-0.4,1.4-0.8,2.1-1.1c1.1-0.4,2.3,0.1,2.9,1c0.6,1,0.5,2.2-0.5,3c-1,0.8-2.1,1.5-3.1,2.3
	c-3.1,2.4-5.4,5.5-6.8,9.1c-0.5,1.2-0.1,1.9,1.1,2c1.3,0.1,2.6,0.1,3.8,0.1c28.5,0,57,0,85.4,0c1.3,0,2.6,0,3.8-0.1
	c0.9,0,1.4-0.6,1.5-1.5c0.2-1.6,0.4-3.2,0.7-4.7c1.2-6.9,4.6-12.6,9.8-17.1c6.2-5.3,13.4-7.9,21.6-7.9c15.8,0,31.7,0,47.5,0
	c1.1,0,2.2,0.1,3.3,0.2c1.1,0.2,1.6,1,1.7,2c0.1,1.1-0.4,1.9-1.3,2.3c-0.5,0.3-1.2,0.4-1.8,0.5c-1.3,0.1-2.6,0-3.8,0
	c-14.9,0-29.8,0-44.6,0c-3.2,0-6.4,0.2-9.5,1.2c-9.3,3.2-15.8,9.2-17.8,19c-2.1,9.7,0.9,18.1,8.3,24.7c4.9,4.3,10.6,6.3,17.2,6.3
	c22.9-0.1,45.8-0.1,68.6-0.3c9.1-0.1,17.7-2.3,25.8-6.6c23.3-12.3,35.1-39.8,27.7-64.8c-6.6-22.6-28.2-39.6-51.6-40.9
	c-1.4-0.1-2.9-0.1-4.3-0.3c-1.4-0.2-2.3-1-2.5-2.5c-0.1-0.8-0.1-1.6-0.2-2.4c-1-8.9-2.4-17.7-4.6-26.4c-5.7-22.4-16-42.4-31.8-59.4
	c-13.2-14.1-28.9-24.7-46.4-32.7c-12.7-5.8-26-9.8-39.5-13.2c-26.5-6.6-44.5-22.9-54.7-48c-3.9-9.7-5.4-20-5.4-30.5
	c0.1-39.7,0-79.3,0-119c0-1.3,0-2.6,0-3.8c0-0.5,0-1,0-1.4c-0.1-0.7-0.8-1.1-1.3-0.7c-1,0.8-1.9,1.7-2.9,2.5
	c-9.9,9.1-19.8,18.2-29.7,27.3c-0.7,0.6-1.4,1.3-2.1,1.9c-2.4,2.1-3,2.1-5.4,0.4c-0.9-0.6-1.8-1.4-2.7-2
	c-16.9-11.8-35.4-15.8-55.6-11.2c-9.5,2.1-18.2,6.2-25.8,12.1c-4.3,3.3-4.7,2.8-8.4-0.6c-9.9-9.3-19.9-18.6-29.8-27.8
	c-0.9-0.9-1.9-1.7-2.9-2.5c-0.6-0.5-1.3-0.1-1.3,0.7c0,1.4-0.1,2.9-0.1,4.3c0,10.6,0,21.1,0,31.7c0,2.1-0.7,3.5-2.5,4.7
	c-16.8,11.6-22.6,33-14.9,52c2.6,6.5,6.5,12.1,12,16.5c2.4,1.9,3.5,4,3.2,7c-0.1,1.1,0,2.2,0,3.4c0,27,0,54.1,0,81.1
	c0,64.5,0,128.9,0,193.4c0,1.6,0,3.2-0.1,4.8c-0.1,1.4-0.8,2.4-2.3,2.8c-0.8,0.2-1.5,0.4-2.3,0.6c-5.4,1.4-9.5,4.5-12.5,9.1
	c-2.9,4.4-4.4,9.2-5.2,14.3c-0.1,0.9,0.1,1.7,1.1,1.7c4.2,0.1,8.3,0.1,12.5,0.1c0.9,0,1.4-0.6,1.7-1.4c0.4-1.1,0.7-2.1,1-3.2
	c1.8-4.9,4.9-9,9.1-12.1c0.8-0.6,1.6-1.1,2.5-1.5c1-0.5,2.2,0,2.9,1.1c0.6,0.9,0.5,1.9-0.2,2.6c-0.8,0.8-1.7,1.5-2.6,2.1
	c-3.2,2.6-5.5,5.8-7,9.6c-0.9,2.4-0.1,2.7,1.7,2.8c3.8,0,7.7,0.1,11.5,0c2.5,0,2.6-0.1,3.3-2.5c1.7-5.5,4.6-10.1,9.1-13.8
	c0.7-0.6,1.5-1.2,2.4-1.6c1.4-0.8,2.6-0.6,3.4,0.5c0.9,1.1,0.7,2.4-0.4,3.4c-0.8,0.7-1.8,1.3-2.6,2.1c-2.8,2.3-4.8,5.2-6.2,8.5
	c-1.4,3.3-0.3,3.5,2.1,3.5c5.8,0,11.5,0,17.3,0c7,0,6.1,0.7,6.1-6.2c0-52.5,0-104.9,0-157.4c0-1.4,0-2.9,0-4.3c0-0.6,0-1.3,0.2-1.9
	c0.2-1.1,1.4-2,2.5-1.9c1.1,0,2.1,0.9,2.2,2.1c0.1,1.4,0.1,2.9,0.1,4.3C1294.1,637.1,1294.1,663.7,1294.1,690.3z"/>
<path fill="#B2ACBF" d="M986.1,1112.2c0,56.3,0,112.6,0,168.9c0,7.4-0.8,6.4,6.3,6.4c96.9,0,193.9,0,290.8,0c7.2,0,6.4,0.9,6.4-6.4
	c0-112.4,0-224.9,0-337.3c0-1.3,0-2.6,0-3.8c-0.1-2.6-0.3-2.8-2.8-2.8c-1,0-1.9,0-2.9,0c-97.4,0-194.8,0-292.2,0c-1.3,0-2.6,0-3.8,0
	c-1.2,0-1.7,0.7-1.8,1.8c-0.1,1.6-0.1,3.2-0.1,4.8C986.1,999.9,986.1,1056,986.1,1112.2z"/>
<path fill="#EDC062" d="M1455,1034.1c0,82.1,0,164.1,0,246.2c0,1.6,0,3.2,0,4.8c0.1,2,0.3,2.3,2.2,2.4c1.1,0.1,2.2,0,3.4,0
	c24.6,0,49.3,0,73.9,0c1.1,0,2.2,0,3.4,0c1.9-0.1,2.3-0.4,2.4-2.2c0.1-1.6,0-3.2,0-4.8c0-46.1,0-92.1,0-138.2c0-36.8,0-73.6,0-110.4
	c0-1.6,0-3.2,0.1-4.8c0.1-1.5,1-2.3,2.5-2.4c1.4-0.1,2.9-0.1,4.3-0.1c21.1,0,42.2,0,63.3,0c6.6,0,5.8,0.6,5.8-6
	c0-69.7,0-139.5,0-209.2c0-1.1,0-2.2,0-3.4c-0.1-2.3-0.4-2.6-2.5-2.1c-4.4,1-8.8,1.6-13.3,1.6c-22.2,0.1-44.5,0.2-66.7,0.3
	c-1.6,0-3.2,0-4.8-0.1c-11.1-0.8-19.3-6.3-24.8-15.8c-1.1-1.9-1.8-4.1-2.6-6.2c-1-2.5-0.9-2.6-3.8-2.7c-1.1,0-2.2,0-3.4,0
	c-10.9,0-21.8,0-32.6,0c-8,0-6.9-0.9-6.9,6.9C1455,870,1455,952.1,1455,1034.1z"/>
<path fill="#EDC062" d="M1381,1034.4c0-60.6,0-121.3,0-181.9c0-22.2,0-44.5,0-66.7c0-4.7,0-4.7-4.8-4.7c-50.6,0-101.1,0-151.7,0
	c-1.1,0-2.2,0-3.4,0.1c-0.9,0.1-1.4,0.7-1.5,1.5c-0.1,1-0.1,1.9-0.1,2.9c0,15.4,0,30.7,0,46.1c0,1,0,1.9,0.1,2.9
	c0,0.2,0.3,0.6,0.5,0.6c0.2,0.1,0.6-0.1,0.8-0.2c0.5-0.4,0.9-0.9,1.3-1.4c4.8-5.8,9.5-11.6,14.3-17.5c0.7-0.9,1.4-1.7,2.1-2.6
	c0.8-0.9,1.7-1.5,2.9-1.1c1.5,0.4,1.8,1.7,1.9,3c0,1.3,0,2.6,0,3.8c0,18.6,0,37.1,0,55.7c0,1.4,0,2.9,0,4.3c0.1,1.7,0.5,2,2,1.6
	c4.1-1.2,8.3-2.4,12.4-3.6c0.9-0.3,1.8-0.5,2.8-0.6c1.1-0.1,1.8,0.5,2.2,1.4c0.4,1.1,0,2.5-0.9,2.9c-1.2,0.5-2.4,0.9-3.6,1.3
	c-4.1,1.3-8.3,2.5-12.4,3.7c-0.6,0.2-1.3,0.3-1.8,0.7c-0.7,0.5-0.8,1.3-0.6,2.1c0.1,0.7,0.7,1,1.4,1c1,0,1.9,0.1,2.9,0.1
	c5.9,0,11.8,0,17.8,0c1.1,0,2.2,0,3.3,0.2c1.1,0.2,2,1.3,1.9,2.4c0,1.1-0.9,2.1-2.1,2.2c-1.3,0.1-2.6,0.1-3.8,0.1
	c-6.4,0-12.8,0-19.2,0c-1.8,0-2.3,0.5-2.3,2.3c0,1.7,0.2,2,2.1,2.6c4.3,1.3,8.6,2.6,12.8,3.9c1.2,0.4,2.4,0.8,3.6,1.3
	c1,0.5,1.3,1.9,0.9,2.9c-0.4,1.1-1.3,1.5-2.3,1.4c-1.1-0.1-2.2-0.4-3.3-0.7c-3.5-1-7-2.1-10.6-3.2c-3.1-0.9-3.4-0.7-3.4,2.4
	c0,7,0,14.1,0,21.1c0,0.6,0.1,1.3,0.2,1.9c0.1,0.7,0.6,1.1,1.3,1.2c1.3,0.1,2.6,0.1,3.8,0.1c12,0,24,0.1,36,0c7,0,5.2,1,9.3-4.7
	c14.9-21,29.7-42.1,44.5-63.1c0.8-1.2,1.7-2.4,2.6-3.4c0.7-0.8,2.2-0.8,3.1-0.1c0.9,0.7,1.3,2,0.7,3c-0.7,1.2-1.5,2.4-2.3,3.6
	c-10,14.3-20.1,28.5-30.1,42.8c-5.3,7.6-10.6,15.2-16,22.7c-1.3,1.8-2.1,3.6-1.9,5.7c0.1,0.6,0,1.3,0,1.9c0,113.7,0,227.5,0,341.2
	c0,1,0,1.9,0,2.9c0.1,2.8,0.1,2.8,3.1,2.9c1.1,0,2.2,0,3.4,0c24.3,0,48.6,0,73,0c7.9,0,6.9,1,6.9-6.9
	C1381,1198.6,1381,1116.5,1381,1034.4z"/>
<path fill="#D3B18F" d="M1697.9,1029.7c-49,0-97.9,0-146.9,0c-6.5,0-5.8-0.5-5.8,6c0,32.2,0,64.3,0,96.5c0,5.5-0.3,5.2,5.2,5.2
	c98.2,0,196.4,0,294.7,0c5.9,0,5.4,0.3,5.4-5.5c0-32.2,0-64.3,0-96.5c0-1.3,0-2.6-0.1-3.8c0-1.2-0.8-1.7-1.8-1.8
	c-1.6-0.1-3.2-0.1-4.8-0.1C1795.2,1029.7,1746.6,1029.7,1697.9,1029.7z"/>
<path fill="#D3B18F" d="M1698.2,1180.9c-49.3,0-98.6,0-147.8,0c-5.5,0-5.1-0.5-5.1,5.3c0,32.3,0,64.6,0,97c0,5.9-0.6,5.4,5.4,5.4
	c98.1,0,196.2,0,294.2,0c6.3,0,5.6,0.5,5.6-5.7c0-32,0-64,0-96c0-6.6,0.6-5.9-5.9-5.9C1795.8,1180.9,1747,1180.9,1698.2,1180.9z"/>
<path fill="#53456A" d="M1145.5,932.2c29.1,0,58.2,0,87.3,0c6.1,0,5.6,0.7,5.6-5.7c0-32.8,0-65.6,0-98.3c0-1.1,0-2.2-0.1-3.4
	c0-0.3-0.1-0.7-0.2-0.9c-0.2-0.2-0.7-0.4-0.8-0.3c-0.7,0.6-1.4,1.3-2,2.1c-7.3,8.9-14.6,17.8-21.9,26.7c-0.9,1.1-1.8,2.2-2.8,3.3
	c-1,1-2.4,0.9-3.4-0.1c-0.7-0.7-1.2-1.5-1.8-2.2c-17.6-22-40.9-31.2-68.6-28.4c-20.3,2.1-37,11.4-49.8,27.5c-0.8,1-1.5,2-2.4,3
	c-1,1.1-2.4,1.1-3.4,0.1c-1-1-1.9-2.1-2.8-3.3c-7.3-8.9-14.6-17.8-21.9-26.7c-0.6-0.7-1.3-1.4-2-2.1c-0.1-0.1-0.7,0.2-0.7,0.4
	c-0.1,1.3-0.3,2.5-0.3,3.8c0,33.1,0,66.2,0,99.3c0,1,0,1.9,0,2.9c0.1,1.9,0.4,2.3,2.2,2.4c1.4,0.1,2.9,0,4.3,0
	C1088.5,932.2,1117,932.2,1145.5,932.2z"/>
<path fill="#F7AB00" d="M1450,1034.4c0-82.1,0-164.1,0-246.2c0-1.6,0-3.2,0-4.8c-0.1-1.7-0.6-2.3-2.4-2.3c-5.6-0.1-11.2,0-16.8,0
	c-1.3,0-2.5,0.4-3.6,1.2c-4.4,3.2-8.9,6.3-13.3,9.4c-1.4,1-1.4,1.6,0,2.6c4.6,3.3,9.1,6.6,13.7,9.7c4.6,3,3.8,4.8,0,7.3
	c-4.6,3.1-9.2,6.4-13.7,9.7c-1.4,1-1.4,1.5-0.1,2.5c4.5,3.3,9.1,6.6,13.7,9.7c4.3,2.9,4.1,4.7,0.1,7.3c-4.5,3-8.9,6.2-13.3,9.4
	c-1.9,1.4-2,1.8-0.1,3.1c4.3,3.1,8.5,6.2,12.9,9.1c4.6,3,4.9,4.7,0.1,7.9c-4.5,3-8.9,6.2-13.3,9.4c-1.4,1-1.4,1.6-0.1,2.5
	c4.6,3.3,9.1,6.6,13.7,9.7c4.3,2.8,4.1,4.7,0.1,7.3c-4.5,3-8.9,6.2-13.3,9.4c-2,1.4-2,1.8-0.1,3.1c4.3,3.1,8.5,6.2,12.9,9.1
	c4.5,3,5.1,4.6,0.1,7.9c-4.5,3-8.9,6.2-13.3,9.4c-1.4,1-1.4,1.6-0.1,2.5c4.6,3.3,9.1,6.6,13.7,9.7c4.1,2.7,4.4,4.6,0.1,7.3
	c-4.4,2.9-8.7,6-13,9.1c-2.5,1.8-2.5,2-0.2,3.7c4.2,3,8.3,6,12.6,8.8c4.2,2.8,5.5,4.4,0.2,7.9c-4.1,2.7-8.1,5.7-12.2,8.6
	c-3,2.1-3,2.2-0.2,4.2c3.9,2.8,7.8,5.5,11.8,8.3c0.9,0.6,1.9,1.2,2.7,2c1.7,1.5,1.8,3,0.2,4.4c-0.8,0.7-1.8,1.3-2.7,2
	c-4,2.9-8.1,5.7-12.1,8.6c-2.6,1.8-2.6,2,0.2,3.9c4,2.9,8.1,5.7,12.1,8.6c1,0.7,2.1,1.5,3,2.4c1,1,1,2.4-0.1,3.4
	c-0.8,0.8-1.7,1.4-2.7,2c-4.4,3.1-8.9,6.3-13.3,9.4c-1.6,1.1-1.6,1.6,0.1,2.8c4.4,3.2,8.8,6.4,13.3,9.4c4.1,2.8,4.6,4.4-0.1,7.6
	c-4.5,3-8.9,6.2-13.3,9.4c-1.6,1.2-1.6,1.6,0.1,2.8c3.9,2.8,7.8,5.6,11.7,8.3c1,0.7,2.1,1.4,3.1,2.2c2.5,1.9,2.5,3.4,0,5.3
	c-0.8,0.6-1.6,1.1-2.3,1.7c-3.7,2.6-7.3,5.2-11,7.8c-0.8,0.6-1.6,1.1-2.3,1.7c-0.6,0.5-0.6,1.2,0,1.6c1.2,1,2.6,1.9,3.9,2.8
	c4,2.9,8.1,5.7,12.1,8.6c2,1.5,2,3.2,0,4.7c-4.1,3-8.3,5.9-12.5,8.9c-1.2,0.8-2.3,1.7-3.5,2.6c-0.6,0.5-0.7,1.1,0,1.6
	c0.9,0.7,1.8,1.4,2.7,2c3.9,2.8,7.8,5.5,11.7,8.3c0.9,0.6,1.8,1.3,2.6,2.1c0.7,0.8,0.8,1.8,0,2.6c-0.7,0.8-1.6,1.5-2.5,2.2
	c-4,2.9-8.1,5.7-12.1,8.6c-0.8,0.6-1.6,1.1-2.3,1.7c-0.6,0.5-0.7,1.1-0.1,1.6c1.1,0.9,2.3,1.7,3.5,2.6c4.2,3,8.4,5.9,12.5,8.9
	c2.1,1.5,2.1,3.2,0.1,4.7c-3.3,2.5-6.8,4.8-10.2,7.2c-2,1.4-3.9,2.8-5.8,4.2c-0.6,0.4-0.7,1.1-0.1,1.6c1.1,0.9,2.3,1.7,3.5,2.6
	c4.2,3,8.4,5.9,12.5,8.9c2.1,1.5,2.1,3.2,0.2,4.7c-1,0.8-2.1,1.5-3.1,2.2c-4.2,3-8.4,5.9-12.5,8.9c-1.1,0.8-1.2,1.5-0.2,2.3
	c1.1,0.9,2.3,1.7,3.5,2.5c3.9,2.8,7.9,5.5,11.7,8.3c2.6,1.9,2.6,3.4,0.2,5.3c-0.7,0.6-1.6,1.1-2.3,1.7c-3,2.1-6,4.2-9,6.4
	c-1.6,1.2-3.6,2.1-4.8,3.9c1,2.2,3.3,2.9,5,4.2c3.2,2.4,6.4,4.8,9.8,6.9c4.7,3,3.5,5-0.1,7.3c-3.3,2.2-6.5,4.6-9.8,7
	c-0.2,0.1-0.3,0.6-0.3,0.8c0.1,0.2,0.4,0.5,0.6,0.5c1.3,0.1,2.6,0.1,3.8,0.1c7,0,14.1,0.1,21.1,0c7.9-0.1,6.9,1.1,6.9-6.8
	C1450,1198.6,1450,1116.5,1450,1034.4z"/>
<path fill="#F7AB00" d="M1386,1034.5c0,82.1,0,164.1,0,246.2c0,1.6,0,3.2,0,4.8c0.1,1.6,0.5,2,2,2c5.8,0,11.5,0,17.3,0
	c1.2,0,2.2-0.4,3.1-1.1c4.6-3.2,9.1-6.5,13.7-9.7c1.4-1,1.4-1.5,0.1-2.5c-3.6-2.6-7.3-5.2-11-7.8c-1.3-0.9-2.6-1.8-3.9-2.8
	c-2.9-2.2-2.9-3.6,0.2-5.9c0.8-0.6,1.6-1.1,2.4-1.7c3.9-2.8,7.9-5.5,11.8-8.3c2.1-1.5,2.1-1.8-0.1-3.4c-4.2-3-8.4-5.9-12.5-8.9
	c-0.9-0.6-1.8-1.3-2.7-2c-1.4-1.3-1.4-2.8,0.1-4.1c1-0.8,2-1.5,3.1-2.3c4.3-3.1,8.6-6.1,12.9-9.1c1.1-0.8,1.1-1.4,0-2.2
	c-4.6-3.3-9.1-6.5-13.7-9.7c-0.9-0.6-1.8-1.3-2.6-2.1c-1-1-1.1-2.5-0.1-3.4c0.9-0.9,2-1.6,3-2.4c4.4-3.2,8.9-6.3,13.3-9.4
	c1.2-0.8,1.2-1.4,0.1-2.2c-3.2-2.3-6.5-4.6-9.8-6.9c-2-1.4-4-2.7-5.8-4.2c-2-1.6-2-3.2-0.1-4.7c1-0.8,2.1-1.5,3.1-2.3
	c4-2.9,8.1-5.7,12.1-8.6c1.9-1.3,1.8-1.6-0.1-3c-4.4-3.2-8.9-6.3-13.3-9.4c-4.3-3.1-4.3-4.2,0.1-7.3c4.6-3.2,9.1-6.4,13.7-9.7
	c1.4-1,1.4-1.5,0-2.5c-4.5-3.3-9.1-6.6-13.7-9.7c-3.5-2.4-4.8-4.2-0.1-7.4c4.5-3,8.9-6.2,13.3-9.4c2-1.4,2-1.7,0.1-3.1
	c-4-2.9-8.1-5.7-12.1-8.6c-0.9-0.6-1.9-1.3-2.7-1.9c-2.4-1.9-2.3-3.4,0.2-5.3c1.1-0.9,2.3-1.7,3.5-2.5c3.8-2.7,7.6-5.3,11.4-8
	c1.6-1.1,1.6-1.6-0.1-2.8c-4.3-3.1-8.6-6.1-12.9-9.2c-1-0.7-2.1-1.5-3-2.3c-1-0.9-1-2.5,0-3.4c0.9-0.9,2-1.6,3-2.3
	c4.4-3.2,8.9-6.3,13.3-9.5c1.1-0.8,1.1-1.4,0.1-2.2c-4.4-3.2-8.9-6.3-13.3-9.4c-1-0.7-2.1-1.5-3-2.3c-1-0.9-1-2.5-0.1-3.4
	c0.7-0.7,1.5-1.2,2.2-1.8c3.8-2.7,7.6-5.3,11.4-8c1.3-0.9,2.8-1.6,3.7-3c-0.8-1.7-2.5-2.4-3.9-3.4c-3.5-2.5-7-5-10.6-7.5
	c-0.9-0.6-1.8-1.3-2.7-2c-1.2-1.1-1.2-2.7,0.1-3.8c1-0.8,2-1.6,3.1-2.3c4.3-3.1,8.6-6.1,12.9-9.2c1.4-1,1.4-1.5-0.1-2.5
	c-4.6-3.3-9-6.6-13.7-9.7c-4.4-2.9-3.8-4.9,0-7.4c4.7-3.1,9.2-6.4,13.7-9.7c1.4-1,1.4-1.5,0.1-2.5c-4.6-3.3-9-6.6-13.7-9.7
	c-4.3-2.8-4.1-4.7-0.2-7.4c4.4-2.9,8.7-6,12.9-9.1c2.5-1.8,2.5-1.9,0.2-3.7c-3.4-2.4-6.8-4.8-10.2-7.2c-1-0.7-2.1-1.5-3.1-2.2
	c-3.9-2.8-3.9-4-0.2-6.7c1-0.8,2.1-1.5,3.1-2.2c3.7-2.6,7.3-5.1,11-7.8c1.6-1.2,1.6-1.5-0.1-2.8c-4.4-3.2-8.9-6.3-13.3-9.4
	c-0.9-0.6-1.8-1.3-2.6-2.1c-1-0.9-1-2.5,0-3.4c0.9-0.9,2-1.6,3-2.3c4.4-3.2,8.9-6.3,13.3-9.4c1.1-0.8,1.1-1.4,0-2.2
	c-4.4-3.2-8.9-6.3-13.3-9.5c-1-0.7-2.1-1.5-3-2.3c-1-0.9-1-2.5,0-3.4c0.9-0.9,2-1.6,3-2.3c4.3-3.1,8.6-6.1,12.9-9.2
	c1.7-1.2,1.7-1.6,0.1-2.8c-4.3-3.1-8.6-6.1-12.9-9.1c-0.9-0.6-1.9-1.3-2.7-2c-1.6-1.4-1.6-3,0.2-4.4c0.9-0.7,1.8-1.3,2.7-2
	c4.2-3,8.4-5.9,12.5-8.9c1.9-1.3,1.8-1.6-0.1-3.1c-0.6-0.5-1.3-0.9-2-1.4c-3.7-2.6-7.3-5.2-11-7.7c-0.9-0.6-1.8-1.3-2.7-2
	c-1.2-1.1-1.2-2.6,0.1-3.8c0.7-0.7,1.5-1.2,2.3-1.8c2.3-1.7,4.7-3.3,7.1-5c0.8-0.6,1.6-1.1,2.3-1.7c0.2-0.2,0.4-0.5,0.3-0.8
	c-0.1-0.2-0.4-0.5-0.6-0.6c-0.8-0.1-1.6-0.2-2.4-0.2c-8.3,0-16.6,0-25,0c-0.8,0-1.6,0-2.4,0.1c-1.1,0.1-1.7,0.8-1.7,1.9
	c0,1.6,0,3.2,0,4.8C1386,870.1,1386,952.3,1386,1034.5z"/>
<path fill="#FAE0D6" d="M1698.2,1142.4c-48.9,0-97.9,0-146.8,0c-1.6,0-3.2,0-4.8,0.1c-0.7,0-1.2,0.5-1.2,1.2
	c-0.1,1.3-0.1,2.6-0.1,3.8c0,7.4,0,14.7,0,22.1c0,7.1-0.8,6.3,6.5,6.3c64.8,0,129.5,0,194.3,0c32.8,0,65.6,0,98.3,0
	c1.6,0,3.2-0.1,4.8-0.1c0.7,0,1.1-0.5,1.2-1.2c0.1-0.6,0.1-1.3,0.1-1.9c0-9,0-17.9,0-26.9c0-3.3-0.1-3.3-3.1-3.4c-1.3,0-2.6,0-3.8,0
	C1795.1,1142.4,1746.6,1142.4,1698.2,1142.4z"/>
<path fill="#FAE0D6" d="M479.6,1288.7c29.4,0,58.9,0,88.3,0c1.3,0,2.6,0,3.8,0c2.5-0.1,2.7-0.5,2.1-2.9c-0.2-0.6-0.4-1.2-0.6-1.8
	c-5.2-16.1-10.4-32.2-15.6-48.4c-0.2-0.8-0.5-1.5-0.8-2.3c-2.2-5.2-6.2-8-11.8-8.3c-1.1-0.1-2.2,0-3.4,0c-41.4,0-82.8,0-124.3,0
	c-1.1,0-2.2-0.1-3.4,0c-5.4,0.4-9.3,3.1-11.5,8c-0.6,1.5-1.1,3-1.6,4.5c-4.9,15.2-9.8,30.4-14.7,45.6c-1.8,5.8-2.5,5.5,4.2,5.5
	C420.1,1288.7,449.9,1288.7,479.6,1288.7z"/>
<path fill="#FAE0D6" d="M696.3,1288.7c29.7,0,59.5,0,89.2,0c1.4,0,2.9,0,4.3-0.1c1-0.1,1.3-0.7,1.1-1.6c-0.1-0.6-0.3-1.3-0.5-1.9
	c-5.4-16.7-10.8-33.5-16.2-50.2c-2.2-6.7-6.6-9.8-13.6-9.9c-0.6,0-1.3,0-1.9,0c-41.6,0-83.2,0-124.7,0c-1.1,0-2.2-0.1-3.4,0
	c-5,0.4-8.7,2.9-11,7.4c-0.7,1.4-1.2,3-1.7,4.5c-5,15.5-10,31-15,46.5c-1.8,5.5-2.2,5.3,4,5.3
	C636.8,1288.7,666.6,1288.7,696.3,1288.7z"/>
<path fill="#B2ACBF" d="M1942.2,1266.2C1942.2,1266.2,1942.2,1266.2,1942.2,1266.2c-22.7,0.1-45.4,0.2-68.1,0.4
	c-4.8,0-9.6,0.1-14.4,0.2c-4.1,0.1-4.1,0.1-4.1,3.9c0,4.3,0,8.6,0,13c0,4.8-0.2,4.6,4.8,4.6c47.5,0,95,0,142.5,0
	c4.3,0,5.1,0.4,2.8-4.4c-1.2-2.5-2.9-4.6-5.1-6.3c-0.7-0.6-1.5-1.1-2.2-1.8c-0.9-0.8-1-2.2-0.4-3.1c0.6-0.9,1.9-1.3,3-0.8
	c1,0.5,2,1.1,2.8,1.8c4.1,3.3,6.8,7.6,8.2,12.6c0.3,1.2,1,1.9,2.4,1.9c3.7,0,7.4,0,11,0c1,0,1.4-0.6,1.1-1.6c-1-3.7-3.2-6.6-6.1-9
	c-0.9-0.7-1.8-1.3-2.5-2.2c-0.6-0.8-0.6-1.8-0.1-2.7c0.6-0.9,1.5-1.2,2.5-0.9c0.9,0.3,1.8,0.7,2.5,1.3c3.3,2.4,5.8,5.5,7.5,9.2
	c0.5,1.2,1,2.4,1.4,3.6c0.8,2.3,0.8,2.3,2.9,2.3c2.9,0,5.8,0,8.6,0c1.9,0,2.4-0.5,2-2.3c-0.6-2.8-1.4-5.6-2.6-8.2
	c-3.9-8.1-10.2-12.5-19.4-12.3c-9.9,0.2-19.8,0.3-29.7,0.4C1976.4,1266,1959.3,1266.1,1942.2,1266.2z"/>
<path fill="#B2ACBF" d="M1913,1196.8c-0.1,0-0.2,0-0.3,0c0-8,0-16,0-24c0-1.3,0-2.6-0.1-3.8c-0.1-0.9-0.6-1.4-1.6-1.5
	c-0.8-0.1-1.6-0.1-2.4-0.1c-16.3,0-32.6,0-48.9,0c-1,0-1.9,0-2.9,0.1c-0.7,0.1-1.2,0.5-1.3,1.2c-0.1,0.8-0.1,1.6-0.1,2.4
	c0,7.7,0,15.3,0,23c0,0.8,0,1.6,0.1,2.4c0.1,0.7,0.5,1.2,1.2,1.3c0.6,0.1,1.3,0.1,1.9,0.1c7.7-0.2,15.3-0.5,23-0.8
	c0.3,0,0.6,0,1-0.1c0.9-0.1,1.5-0.6,1.5-1.5c0.1-2.6,0-5.1,0.1-7.7c0-1.1,0.1-2.2,0.3-3.3c0.2-1.1,1.4-1.8,2.5-1.7
	c1.1,0.1,1.8,0.8,2,1.8c0.2,1.3,0.2,2.5,0.2,3.8c0,4.6,0,9.3,0.1,13.9c0,1.2,0.8,1.7,1.9,1.3c3.8-1.1,6.9-3.2,9.4-6.3
	c0.7-0.9,1.4-1.8,2.1-2.6c0.8-0.8,2.3-0.8,3.1,0c0.7,0.7,1.2,1.5,0.8,2.6c-0.4,0.9-0.9,1.7-1.4,2.5c-3,4.1-7.1,6.8-11.9,8.5
	c-0.9,0.3-1.9,0.5-2.8,0.8c-0.8,0.3-1.3,0.9-1.3,1.8c0,3.8,0,7.7,0,11.5c0,0.9,0.8,1.3,1.7,1.1c3.8-1.1,7-3.1,9.5-6.2
	c0.7-0.9,1.3-1.8,2.1-2.6c0.7-0.8,2.2-0.8,3.1-0.2c0.9,0.6,1.2,1.9,0.8,3c-0.7,1.6-1.9,3-3.1,4.2c-3.4,3.6-7.5,5.9-12.3,7
	c-1.3,0.3-1.9,1-1.9,2.3c0,3,0,6.1,0,9.1c0,1.7,0.7,2.2,2.5,1.9c4.6-0.8,9-2.3,12.8-5c5.4-3.9,8.3-9.2,8.4-15.9
	C1913,1213.1,1913,1204.9,1913,1196.8z"/>
<path fill="#D6E9F6" d="M2197,1288.5c11.4,0,22.7,0,34.1,0c1.3,0,2.6,0,3.8,0c1.6,0,1.8-0.4,1-1.6c-1-1.4-1.6-2.8-1.5-4.4
	c0.1-1.6,0-2.7-2.1-2.8c-1.7-0.1-2.3-2.4-1.2-3.8c0.8-1,1.9-1.8,2.7-2.7c4.9-5.5,5.6-13.5,1.6-19.5c-3.9-5.9-11.3-8.5-18.1-6.4
	c-6.6,2.1-11.4,8.8-11.2,15.7c0.3,7.3,5.4,13.4,12.6,15c1.2,0.3,2.5,0.4,3.7,0.8c1,0.3,1.5,1.1,1.5,2.2c0,1.1-0.9,2.2-2,2.4
	c-0.8,0.1-1.6,0.1-2.4,0c-8.5-1-15.4-7-17.8-15.4c-0.7-2.5-0.7-5-0.7-7.6c0-2.3-0.2-2.5-2.4-2.6c-18.7-1.2-35.3,10.3-41.3,27.4
	c-0.2,0.5-0.3,0.9-0.4,1.4c-0.3,1.2,0.1,1.9,1.3,1.9c1.3,0.1,2.6,0.1,3.8,0.1C2173.7,1288.5,2185.3,1288.5,2197,1288.5z"/>
<path fill="#D3B18F" d="M480.7,1220.8c0,0.1,0,0.2,0,0.3c16.5,0,32.9,0,49.4,0c2.2,0,4.5,0.1,6.7,0c1.4,0,1.9-0.9,1.5-2.2
	c-1.4-4.6-4.5-7.7-8.9-9.5c-6.9-2.8-14-3-21.1-0.6c-3.9,1.3-7,3.8-9.6,7c-1.4,1.7-2.6,1.6-4.1,0.2c-0.5-0.4-0.8-1-1.3-1.4
	c-3.5-3.9-7.6-6.8-12.2-9.1c-6.7-3.3-13.9-4.8-21.3-5.1c-6.4-0.2-12.8,0.5-18.9,2.7c-6.5,2.4-11.8,6.3-15.5,12.3
	c-0.7,1.1-1.2,2.3-1.7,3.4c-0.4,0.9,0.1,1.5,1.1,1.6c0.6,0,1.3,0.1,1.9,0.1C444.8,1220.5,462.7,1220.7,480.7,1220.8z"/>
<path fill="#D6E9F6" d="M807.5,1294.3C807.5,1294.3,807.5,1294.3,807.5,1294.3c-13.8,0-27.5,0-41.3,0c-1.4,0-2.9,0-4.3,0.2
	c-1.3,0.2-2.3,1.4-2.4,2.6c0,1.4,1.1,2.6,2.8,2.7c2.1,0.1,4.2,0,6.2,0.1c1.9,0,3.9-0.1,5.7,0.1c3.3,0.4,5.6,2.3,6.6,5.5
	c1,3.2-0.2,6.6-2.8,8.6c-1.3,1-2.9,1.4-4.5,1.5c-1.3,0.1-2.6,0-3.8,0.2c-1.6,0.2-2.7,1.6-2.6,3c0.1,1.2,1.2,2.2,2.6,2.4
	c0.8,0.1,1.6,0.1,2.4,0.1c10.6,0,21.1,0,31.7,0c1,0,1.9,0,2.9-0.2c1.1-0.2,2-1.2,2.1-2.3c0.1-1.1-0.5-2.3-1.6-2.7
	c-0.9-0.3-1.9-0.4-2.8-0.7c-4-1.1-6.3-4.2-6-8.1c0.2-3.8,3.1-6.8,7.1-7.3c1.4-0.2,2.9-0.1,4.3-0.1c12.8,0,25.6,0,38.4,0
	c1.3,0,2.6,0,3.8,0c1.7-0.1,2.8-1.2,2.8-2.7c0-1.3-1.1-2.6-2.8-2.8c-1.3-0.1-2.6-0.1-3.8-0.1
	C834.7,1294.3,821.1,1294.3,807.5,1294.3z"/>
<path fill="#FFFFFF" d="M2094.3,1288.6c11.5,0,23,0,34.5,0c1.4,0,2.9-0.1,4.3-0.1c0.4,0,0.7-0.2,0.6-0.6c-0.1-0.2-0.3-0.5-0.5-0.6
	c-8.2-3.2-15.7-7.9-23-12.8c-0.7-0.4-1.4-0.9-2.1-1.2c-3-1.5-4.1-1.3-6.3,1.1c-0.8,0.8-1.5,1.7-2.2,2.6c-2,2.3-3.9,4.6-5.9,7
	c-1.6,1.9-3.6,3.2-6,3.6c-4.5,0.8-8.2-0.5-11-4.3c-1.5-2.1-2.9-4.2-4.4-6.3c-0.8-1.2-1.8-2.3-3.2-2.7c-2.3-0.7-4.5-0.3-6.1,1.7
	c-2.9,3.6-5.6,7.4-8.5,11c-0.1,0.1-0.2,0.3-0.2,0.4c0,0.5,0,1,0.6,1.1c1.4,0.1,2.9,0.2,4.3,0.2
	C2071,1288.6,2082.6,1288.6,2094.3,1288.6z"/>
<path fill="#D6E9F6" d="M2254.4,1262.5c-0.3-5.3-2.3-9.5-6.3-12.7c-2.9-2.2-6.2-3.3-9.8-3.3c-0.5,0-1,0.1-1.2,0.6
	c-0.1,0.2,0,0.6,0.2,0.8c2.1,2.4,3.6,5,6.5,6.8c4.9,3,5.4,9.2,1.9,13.8c-0.7,0.9-2.7,1.5-1.9,2.9c0.5,0.8,2.2,0.9,3.4,1.3
	c0.3,0.1,0.6,0.1,0.9,0.2c1.4,0.4,2.4-0.2,3.3-1.4C2253.4,1268.9,2254.2,1265.6,2254.4,1262.5z"/>
<path fill="#D6E9F6" d="M2255.6,1288.5C2255.6,1288.5,2255.6,1288.4,2255.6,1288.5c3.2,0,6.4,0,9.6,0c1.9,0,2-0.4,1.2-2.3
	c-0.9-2-2-3.3-4.4-3.8c-4.3-1-8.6-2.4-12.9-3.6c-3-0.8-3-0.8-2.4,2c0.4,1.6,0.3,3.2-0.5,4.6c-0.4,0.8-1.4,1.8-1.2,2.4
	c0.4,1.3,1.9,0.6,2.9,0.7C2250.5,1288.5,2253.1,1288.5,2255.6,1288.5z"/>
<path fill="#53456A" d="M2028.9,706.3c17.8,0,35.5,0,53.3,0c1.6,0,3.2,0,4.8,0.2c1.3,0.1,2,1.1,2,2.3c0,1.1-0.9,2.2-2.1,2.3
	c-1.3,0.1-2.6,0.1-3.8,0.1c-3.7,0-7.4,0-11,0.1c-1.2,0-1.7,0.7-1.8,1.8c0,1-0.1,1.9-0.1,2.9c0,8,0,16,0,24c0,1.1,0,2.2,0.1,3.4
	c0.1,0.9,0.7,1.4,1.6,1.5c1.4,0.1,2.9,0.1,4.3,0.1c18.4,0,36.8,0,55.2,0c1.4,0,2.9,0,4.3,0.2c1,0.1,1.7,0.8,1.9,1.9
	c0.1,1.1-0.6,2.4-1.7,2.5c-1.1,0.2-2.2,0.2-3.3,0.2c-3.8,0-7.7,0-11.5,0c-1.9,0-2.3,0.5-2.3,2.3c-0.1,2.7,0,5.4-0.1,8.2
	c0,7.2,0,14.4,0,21.6c0,1.1,0,2.2,0,3.4c-0.2,2.2-0.8,2.9-2.9,3c-1,0.1-1.9,0-2.9,0c-30.1,0-60.1,0-90.2,0c-5.9,0-5.9,0-5.9-5.9
	c0-9.1,0-18.2,0-27.4c0-1.3,0-2.6-0.1-3.8c-0.1-1-0.8-1.3-1.7-1.4c-1.3-0.1-2.6-0.1-3.8-0.1c-12.3,0-24.6,0-36.9,0
	c-5.4,0-6.3-0.1-6.3-6.2c0.1-10.2,0-20.5,0-30.7c0-6.4,0.1-6.5,6.3-6.5C1992.4,706.3,2010.7,706.3,2028.9,706.3z"/>
<path fill="#FFFFFF" d="M2018.6,711.2c-13.1,0-26.2,0-39.3,0c-1.3,0-2.6,0-3.8,0c-2.2,0.1-2.6,0.4-2.7,2.5c0,0.5,0,1,0,1.4
	c0,8.6,0,17.3,0,25.9c0,3.7,0.1,3.8,3.8,3.8c0.2,0,0.3,0,0.5,0c28,0,56,0,83.9,0c1,0,1.9,0,2.9-0.1c0.7-0.1,1.2-0.5,1.3-1.2
	c0.1-0.9,0.2-1.9,0.2-2.9c0-8.5,0-16.9,0-25.4c0-0.8-0.1-1.6-0.1-2.4c-0.1-0.9-0.6-1.5-1.5-1.5c-1.4-0.1-2.9-0.1-4.3-0.1
	C2045.7,711.2,2032.2,711.2,2018.6,711.2z"/>
<path fill="#D6E9F6" d="M2067.6,749.7c-13.4,0-26.9,0-40.3,0c-1.4,0-2.9,0-4.3,0.1c-0.9,0-1.4,0.6-1.5,1.5c-0.1,1-0.1,1.9-0.1,2.9
	c0,7.8,0,15.7,0,23.5c0,6.2-0.4,5.7,5.7,5.7c27,0,54,0,81,0c1.3,0,2.6,0,3.8-0.1c1.2,0,1.7-0.8,1.7-1.9c0-0.6,0.1-1.3,0.1-1.9
	c0-8.8,0-17.6,0-26.4c0-0.6,0-1.3-0.1-1.9c-0.1-0.9-0.7-1.4-1.6-1.5c-1.3-0.1-2.6-0.1-3.8-0.1
	C2094.7,749.7,2081.1,749.7,2067.6,749.7z"/>
<path fill="#53456A" d="M2165.9,586.4c15,0,30.1,0,45.1,0c6.1,0,6.1,0,6.1,6.2c0,10.7,0,21.4,0,32.1c0,4.5-0.5,4.9-5,4.9
	c-30.7,0-61.4,0-92.1,0c-0.8,0-1.6,0-2.4-0.1c-1.5-0.1-2.4-0.9-2.6-2.3c-0.2-0.9-0.2-1.9-0.2-2.9c0-10.9,0-21.8,0-32.6
	c0-0.2,0-0.3,0-0.5c0.1-4.4,0.5-4.9,5-4.9C2135.2,586.4,2150.6,586.4,2165.9,586.4z"/>
<path fill="#FAE0D6" d="M2166,591.3c-13.6,0-27.2,0-40.8,0c-1.3,0-2.6,0-3.8,0.1c-0.9,0.1-1.4,0.7-1.5,1.6c-0.1,1.3-0.1,2.6-0.1,3.8
	c0,7.5,0,15,0,22.6c0,6.3-0.1,5.6,5.8,5.6c27,0,54.1,0,81.1,0c1.1,0,2.2,0,3.4,0c1.7-0.1,2.2-0.5,2.3-2.4c0-9.6,0-19.2,0-28.8
	c0-2.1-0.4-2.3-2.7-2.4c-1.1,0-2.2,0-3.4,0C2192.8,591.3,2179.4,591.3,2166,591.3z"/>
<path fill="#53456A" d="M477,903.4c-17.9,0-35.8,0-53.8,0c-1.4,0-2.9,0-4.3-0.1c-1.2-0.1-2.1-1.1-2.2-2.2c-0.1-1.2,0.9-2.4,2.4-2.4
	c3.8-0.1,7.7-0.1,11.5-0.1c5.1,0,5,0.2,5-5c0-8,0-16,0-24c0-1,0-1.9-0.1-2.9c0-1.2-0.7-1.7-1.8-1.7c-2.9,0-5.8,0-8.6,0
	c-1.6,0-3.2,0-4.8,0c-0.6,0-1.3-0.1-1.9-0.2c-1-0.3-1.8-1.6-1.6-2.6c0.2-1,0.9-1.7,1.9-1.8c1.4-0.1,2.9-0.1,4.3-0.1
	c18.4,0,36.8,0,55.2,0c1.4,0,2.9,0,4.3-0.1c1.1-0.1,1.7-0.8,1.8-1.9c0.1-0.8,0.1-1.6,0.1-2.4c0-8.3,0-16.6,0-25c0-1,0-1.9-0.1-2.9
	c-0.1-0.7-0.5-1.2-1.2-1.2c-1.4-0.1-2.9-0.2-4.3-0.2c-12.3,0-24.6-0.1-37,0c-6.2,0.1-6.2-1.1-6.2-6.3c0.1-10.6,0-21.1,0-31.7
	c0-5.1,0.3-5.4,5.4-5.4c12.5,0,25,0,37.4,0c6.6,0,5.9,0.2,5.9-6.1c0-8.6,0-17.3,0-25.9c0-1.1,0-2.2,0-3.4c0.1-2.4,0.8-3,3.3-3.2
	c0.8-0.1,1.6-0.1,2.4-0.1c36.6,0,73.3,0,109.9,0c1.3,0,2.6,0.1,3.8,0.4c1,0.2,1.6,1.1,1.5,2.2c0,1.1-0.7,1.9-1.7,2.1
	c-1.1,0.3-2.2,0.3-3.3,0.3c-3.7,0-7.4,0-11,0c-2.5,0-2.9,0.4-2.9,2.7c0,9.4,0,18.9,0,28.3c0,2.1,0.5,2.4,2.6,2.6
	c1.3,0.1,2.6,0,3.8,0c11.8,0,23.7,0,35.5,0c1.3,0,2.6,0,3.8,0.1c2.1,0.2,2.7,0.9,2.8,3.1c0.1,0.8,0,1.6,0,2.4c0,10.7,0,21.4,0,32.2
	c0,1,0,1.9-0.1,2.9c-0.2,1.7-1.1,2.6-2.8,2.7c-1.3,0.1-2.6,0.1-3.8,0.1c-12.2,0-24.3,0-36.5,0c-1.3,0-2.6,0-3.8,0.1
	c-0.9,0.1-1.5,0.5-1.6,1.5c-0.1,0.8-0.1,1.6-0.1,2.4c0,8.5,0,17,0,25.4c0,4.1,0.1,4.1,4.4,4.2c1.9,0,3.8,0,5.8,0c1.8,0,3.5,0,5.3,0
	c0.6,0,1.3,0.1,1.9,0.2c1,0.3,1.6,1,1.6,2.1c0,1.1-0.5,2-1.5,2.2c-1.2,0.3-2.5,0.3-3.8,0.3c-8.2,0-16.3,0-24.5,0
	c-10.7,0-21.4,0-32.2,0c-1.3,0-2.6,0-3.8,0.1c-0.9,0-1.5,0.6-1.5,1.5c-0.1,1.3-0.1,2.6-0.1,3.8c0,8.8,0,17.6,0,26.4
	c0,1.1,0,2.2,0,3.4c-0.2,2.4-0.9,3.2-3.2,3.3c-1.3,0.1-2.6,0-3.8,0C512.8,903.4,494.9,903.4,477,903.4z"/>
<path fill="#D6E9F6" d="M583.5,821.6c2.1,0.1,3.5,0.3,5,0.3c12.6,0,25.2,0,37.9,0c4,0,4.3-0.2,4.3-4.4c0-7.3,0.1-14.7,0-22
	c-0.1-8.5,1.2-8-8-8c-26.8,0.1-53.7,0.3-80.5,0.5c-1,0-1.9,0-2.9,0.1c-0.7,0.1-1.1,0.5-1.2,1.2c-0.1,0.8-0.2,1.6-0.2,2.4
	c0,8.6,0,17.3,0,25.9c0,0.8,0,1.6,0.1,2.4c0.1,0.8,0.6,1.5,1.6,1.5c1.4,0.1,2.9,0.1,4.3,0.1c12.1,0,24.3,0,36.4,0
	C581.6,821.6,582.9,821.6,583.5,821.6z"/>
<path fill="#FFFFFF" d="M486.4,788c-13.4,0-26.8,0-40.3,0c-1.4,0-2.9,0.1-4.3,0.2c-0.7,0.1-1.2,0.5-1.2,1.2
	c-0.1,1.1-0.1,2.2-0.1,3.3c0,8,0,16,0,24c0,4.9,0,4.9,5.1,4.9c27.5,0,55,0,82.4,0c1.1,0,2.2,0,3.3-0.1c0.9-0.1,1.4-0.7,1.5-1.6
	c0.1-0.8,0.1-1.6,0.1-2.4c0-8.5,0-16.9,0-25.4c0-4.2,0-4.2-4.3-4.2C514.5,788,500.5,788,486.4,788z"/>
<path fill="#FAE0D6" d="M535.5,826.5c-13.6,0-27.2,0-40.8,0c-1.3,0-2.6,0-3.8,0.1c-0.9,0-1.5,0.6-1.5,1.5c-0.1,1-0.1,1.9-0.1,2.9
	c0,8.2,0,16.3,0,24.5c0,4.7,0,4.7,4.9,4.7c27.5,0,55,0,82.5,0c1.1,0,2.2,0,3.3-0.1c0.9-0.1,1.5-0.7,1.5-1.5c0.1-1.3,0.1-2.6,0.1-3.8
	c0-7.5,0-15,0-22.5c0-5.9,0.5-5.5-5.3-5.5C562.6,826.5,549,826.5,535.5,826.5z"/>
<path fill="#FFFFFF" d="M486.7,864.9c-13.6,0-27.2,0-40.8,0c-1.3,0-2.6,0-3.8,0.1c-0.9,0.1-1.5,0.6-1.5,1.5c-0.1,1-0.1,1.9-0.1,2.9
	c0,8.2,0,16.3,0,24.5c0,4.8,0,4.8,4.8,4.8c0.3,0,0.6,0,1,0c27,0,54,0,81,0c1.3,0,2.6,0,3.8-0.1c1.1,0,1.7-0.7,1.8-1.8
	c0.1-0.8,0.1-1.6,0.1-2.4c0-8.5,0-16.9,0-25.4c0-0.8,0-1.6-0.1-2.4c-0.1-0.9-0.6-1.5-1.5-1.5c-1.3-0.1-2.6-0.1-3.8-0.1
	C513.9,864.9,500.3,864.9,486.7,864.9z"/>
<path fill="#FFFFFF" d="M535.3,783.1c13.4,0,26.9,0,40.3,0c1.4,0,2.9,0,4.3-0.1c0.9-0.1,1.5-0.6,1.6-1.5c0.1-1,0.1-1.9,0.1-2.9
	c0-8,0-16,0-24c0-5.3,0.4-5.2-5.3-5.2c-27.3,0-54.7,0-82,0c-1.1,0-2.2,0-3.4,0.1c-0.9,0.1-1.5,0.5-1.6,1.5c-0.1,1-0.1,1.9-0.1,2.9
	c0,8,0,16,0,24c0,5.2-0.3,5.2,5.3,5.2C508.1,783.1,521.7,783.1,535.3,783.1z"/>
<path fill="#53456A" d="M1166.4,752.4c0,3.1-1.5,6.9-4,10.4c-4.2,5.9-10,9.8-16.4,12.9c-1.1,0.5-2.1,0.5-3.2,0
	c-6.6-3.2-12.4-7.2-16.7-13.3c-2-2.8-3.2-5.9-3.6-9.3c-0.7-5.4,1.5-10.2,6-12.6c4.7-2.5,9.9-1.6,14,2.4c0.3,0.3,0.6,0.7,0.9,1.1
	c0.6,0.7,1.2,1,1.9,0.1c0.4-0.5,0.8-1,1.3-1.4c3.7-3.6,8-4.5,12.8-2.5C1163.9,742,1166.4,746.1,1166.4,752.4z"/>
<path fill="#53456A" d="M1314.6,414.2c2.7,0,5.4-0.1,8.1,0c2.4,0.1,3.4,1.7,2.7,4c-0.9,2.8-3,4.4-5.3,6c-0.9,0.6-2.4,0.7-2.5,1.9
	c-0.2,1.5,0.9,2.7,1.9,3.7c3.5,3.4,9.1,3.3,12.4-0.3c0.8-0.9,1.4-2.1,2.3-3c0.7-0.7,1.6-0.9,2.6-0.4c1,0.5,1.3,1.5,1.1,2.4
	c-0.2,0.9-0.6,1.8-1.1,2.6c-4,6.3-12.7,8-19,3.7c-0.9-0.6-1.7-1.4-2.5-2.2c-0.7-0.7-1.3-0.7-2.1-0.1c-0.8,0.7-1.6,1.6-2.5,2.2
	c-6.2,4.5-15.3,2.7-19.3-3.9c-0.5-0.8-0.9-1.7-1-2.6c-0.2-1,0.5-1.8,1.4-2.3c0.8-0.4,1.6-0.3,2.2,0.3c0.8,0.8,1.3,1.8,2,2.6
	c4.2,5.2,11.7,4.4,14.6-1.6c0.4-0.8,0.4-1.6-0.5-2c-1.8-0.8-3.3-1.9-4.6-3.3c-0.6-0.7-1.3-1.4-1.8-2.2c-1.5-2.6-1.6-5.8,3.1-5.6
	C1309.5,414.2,1312,414.2,1314.6,414.2C1314.6,414.2,1314.6,414.2,1314.6,414.2z"/>
<path fill="#53456A" d="M1270.7,429c-0.1-14.4,11.1-26.3,25.2-26.9c0.9,0,1.9,0,2.8,0.2c0.8,0.2,1.3,0.8,1.5,1.7
	c0.2,1.1-0.4,1.9-1.2,2.4c-1.1,0.7-2.5,0.5-3.7,0.6c-9.3,1.1-16.7,7.5-19,16.5c-3.2,12.2,4.9,24.7,17.3,26.9
	c1.7,0.3,3.5,0.5,5.2,0.8c1,0.2,1.6,1.1,1.6,2.1c0,1.1-0.7,1.8-1.7,2.1c-0.6,0.2-1.3,0.3-1.9,0.2
	C1279.8,454.6,1270.5,441.3,1270.7,429z"/>
<path fill="#53456A" d="M1253.5,402.3c4.8-0.4,10,3.6,10.1,9.9c0.1,5.5-4.5,10.1-10.1,10c-5.4,0-9.7-4.3-9.8-9.8
	C1243.6,406.7,1247.8,402.3,1253.5,402.3z"/>
<path fill="#53456A" d="M1371.4,402.3c5.7,0,9.9,4.4,9.8,10.1c-0.1,5.4-4.4,9.7-9.8,9.8c-5.5,0.1-10.2-4.5-10.2-10
	C1361.3,406.2,1366.3,401.9,1371.4,402.3z"/>
<path fill="#53456A" d="M1036,1234.5c8.3,0,16.6,0,24.9,0c1.1,0,2.2,0,3.4,0c2.4,0.1,2.9,0.7,3.1,3.3c0,0.6,0,1.3,0,1.9
	c0,8.9,0,17.9,0,26.8c0,0.3,0,0.6,0,1c-0.1,3.9-0.5,4.4-4.5,4.4c-17.9,0-35.8,0-53.7,0c-0.8,0-1.6,0-2.4-0.1c-1.2-0.2-2-1-2.1-2.3
	c-0.1-1-0.1-1.9-0.1-2.9c0-8.9,0-17.9,0-26.8c0-0.5,0-1,0-1.4c0.1-3.3,0.6-3.8,4-3.8C1017.8,1234.4,1026.9,1234.5,1036,1234.5
	C1036,1234.5,1036,1234.5,1036,1234.5z M1036.4,1239.4c-7.2,0-14.4,0-21.6,0c-1.3,0-2.6,0-3.8,0.1c-0.7,0-1.1,0.5-1.2,1.2
	c-0.1,0.5-0.1,1-0.1,1.4c0,7.2,0,14.4,0,21.6c0,0.5,0,1,0.1,1.4c0.1,0.9,0.6,1.4,1.5,1.5c1.3,0.1,2.6,0.1,3.8,0.1
	c13.9,0,27.8,0,41.7,0c1,0,1.9,0,2.9,0c2.4-0.1,2.8-0.4,2.8-2.8c0-7.2,0-14.4,0-21.6c0-0.6,0-1.3-0.2-1.9c-0.1-0.4-0.6-0.9-0.9-0.9
	c-1.1-0.2-2.2-0.2-3.3-0.2C1050.8,1239.4,1043.6,1239.4,1036.4,1239.4z"/>
<path fill="#53456A" d="M1538.4,841.6c8.8,0,17.6,0,26.3,0c4.5,0,5,0.5,5,4.9c0.1,9.3,0,18.5,0,27.8c0,0.5,0,1,0,1.4
	c-0.2,2.4-0.9,3.1-3.3,3.3c-1.1,0.1-2.2,0-3.4,0c-16.6,0-33.2,0-49.8,0c-6.4,0-6.4,0-6.4-6.3c0-8.3,0-16.6,0-24.9
	c0-1.1,0-2.2,0.1-3.4c0.1-1.8,0.9-2.6,2.7-2.8c1.3-0.1,2.6-0.1,3.8-0.1C1521.8,841.6,1530.1,841.6,1538.4,841.6z M1538,873.8
	c1.4,0,2.9,0,4.3,0c6.1,0,12.2,0,18.2,0c4.2,0,4.1,0,4.1-4.3c0-6.2,0-12.5,0-18.7c0-4.2,0.1-4.2-4.3-4.2c-13.9,0-27.8,0-41.7,0
	c-1.4,0-2.9,0-4.3,0c-2.1,0.1-2.5,0.4-2.5,2.6c0,7.4,0,14.7,0,22.1c0,0.5,0,1,0.2,1.4c0.2,0.4,0.6,0.8,1,0.9
	c1.1,0.2,2.2,0.2,3.3,0.2C1523.6,873.8,1530.8,873.8,1538,873.8z"/>
<path fill="#53456A" d="M1598.4,1240.5c0,8,0,16,0,24c0,1,0,1.9,0,2.9c-0.1,3.8-0.7,4.4-4.5,4.4c-9.4,0.1-18.9,0-28.3,0
	c-0.6,0-1.3,0-1.9-0.1c-1.7-0.2-2.5-1.1-2.7-2.9c-0.1-1-0.1-1.9-0.1-2.9c0-17.1,0-34.2,0-51.3c0-1,0-1.9,0.1-2.9
	c0.2-1.9,1.1-2.8,3.1-2.9c0.6-0.1,1.3,0,1.9,0c9.1,0,18.2,0,27.3,0c0.5,0,1,0,1.4,0c2.7,0.2,3.5,0.8,3.6,3.4c0.1,1.1,0,2.2,0,3.4
	C1598.4,1223.8,1598.4,1232.2,1598.4,1240.5z M1565.9,1240.4c0,7,0,14,0,21.1c0,1.3,0,2.6,0.2,3.8c0.1,0.7,0.6,1.1,1.3,1.2
	c0.5,0.1,1,0.1,1.4,0.1c7.2,0,14.4,0,21.6,0c0.5,0,1,0,1.4-0.1c0.9-0.1,1.4-0.6,1.5-1.5c0-0.8,0.1-1.6,0.1-2.4c0-14.8,0-29.7,0-44.5
	c0-1,0-1.9-0.1-2.9c-0.1-0.7-0.6-1.1-1.3-1.2c-0.8-0.1-1.6-0.2-2.4-0.2c-6.7,0-13.4,0-20.1,0c-0.6,0-1.3,0-1.9,0.1
	c-0.9,0.1-1.4,0.7-1.5,1.6c-0.1,1-0.1,1.9-0.1,2.9C1565.9,1225.7,1565.9,1233,1565.9,1240.4z"/>
<path fill="#D6E9F6" d="M1146.3,880.8c2.9,0,5.8-0.1,8.6,0c2.2,0.1,3,1.5,2.6,3.7c-0.3,1.3-0.9,2.4-1.8,3.3
	c-1.3,1.4-2.7,2.7-4.4,3.7c-1.9,1.1-2,1.9-0.7,3.7c3.4,4.7,9.8,5,13.6,0.7c0.8-1,1.5-2.1,2.3-3c0.6-0.6,1.4-0.6,2.2-0.2
	c0.8,0.4,1.2,1,1.3,1.9c0.1,1.2-0.4,2.2-1.1,3.1c-3.9,6.2-12.4,8.1-18.5,4.1c-1.1-0.7-2-1.6-2.9-2.4c-0.9-0.9-1.6-0.7-2.4,0.1
	c-3.6,3.8-8,5.1-13.1,4c-4-0.8-6.9-3.2-8.8-6.8c-0.3-0.5-0.5-1.2-0.5-1.8c-0.1-1.1,0.4-1.8,1.4-2.3c0.8-0.4,1.6-0.3,2.2,0.3
	c0.8,0.8,1.3,1.8,2,2.7c4.1,5,11.2,4.4,14.4-1.2c0.7-1.3,0.6-2-0.7-2.7c-1.6-0.8-3.1-1.8-4.3-3.1c-0.7-0.8-1.6-1.7-2-2.7
	c-1.3-2.9-0.7-5.1,3-5.2c0.3,0,0.6,0,1,0C1141.9,880.7,1144.1,880.7,1146.3,880.8C1146.3,880.7,1146.3,880.8,1146.3,880.8z"/>
<path fill="#D6E9F6" d="M1116.2,875.9c0,1.4-0.5,2.2-1.5,2.6c-1.1,0.4-2.4,0-2.9-0.9c-0.5-1-0.8-2.1-1.4-3.1
	c-1.8-3.2-4.6-4.8-8.2-4.8c-3.7,0-6.5,1.5-8.3,4.7c-0.5,0.8-0.7,1.8-1.2,2.6c-0.7,1.4-1.7,1.9-3.1,1.5c-1.3-0.4-1.9-1.5-1.6-3
	c1.2-5.1,4.4-8.6,9.3-10.1c8.6-2.6,15.9,1.7,18.4,8.6C1115.9,874.7,1116.1,875.5,1116.2,875.9z"/>
<path fill="#D6E9F6" d="M1193.4,864.6c6.1,0.1,10.7,2.7,13.4,8.4c0.5,1,0.7,2.1,0.9,3.2c0.1,1-0.3,1.9-1.4,2.3
	c-1.1,0.4-2.4,0.1-3-0.9c-0.5-0.8-0.8-1.7-1.2-2.6c-1.7-3.5-4.5-5.3-8.4-5.3c-4.1,0-7,1.8-8.8,5.5c-0.3,0.6-0.4,1.2-0.7,1.8
	c-0.8,1.6-2.1,2.1-3.5,1.4c-1.1-0.5-1.5-1.7-1.1-3.3c0.8-2.9,2.3-5.3,4.5-7.2C1186.8,865.7,1189.9,864.6,1193.4,864.6z"/>
<path fill="#53456A" d="M454.8,1241.1c5.7-0.6,5.8,1.2,5.7,5.1c-0.1,3,0,6.1,0,9.1c0,1.8,0.4,2.1,2.3,2.2c0.2,0,0.3,0,0.5,0
	c4.2,0.1,4.2,0.1,4.4-4.1c0-1.4,0.1-2.9,0.3-4.3c0.2-1.2,1.3-2,2.4-1.9c1.1,0.1,2.2,1,2.3,2.1c0.2,2.2,0.1,4.5,0.2,6.7
	c0,0.9,0.6,1.5,1.6,1.5c1.1,0,2.3,0.4,3.1-0.6c0.3-0.3,0.3-0.9,0.3-1.4c0.1-1.3,0-2.6,0.1-3.8c0-0.8,0-1.6,0.2-2.4
	c0.2-1.1,1.3-2,2.3-2.1c1.1,0,2.1,0.8,2.4,2c0.2,0.8,0.2,1.6,0.2,2.4c0,1.1,0,2.2,0,3.4c0.1,2.3,0.6,2.7,3,2.6
	c1.8-0.1,2.1-0.4,2.2-2.4c0.1-1.4,0-2.9,0-4.3c0-0.6,0.1-1.3,0.2-1.9c0.2-1.1,1.4-1.9,2.5-1.7c1.1,0.1,1.8,0.8,2,1.8
	c0.2,1.3,0.2,2.5,0.2,3.8c0,5.1-0.1,4.8,5.2,4.7c1.9,0,2.2-0.3,2.3-2.2c0.2-1.8,0.3-3.5,0.8-5.2c1.4-4.6,4.5-7.3,9-8.5
	c2.8-0.7,5.7-0.8,8.6-0.4c1.9,0.3,2.7,0.9,2.8,2.7c0.6,5.4,0.4,10.6-3.7,14.8c-1.1,1.1-0.7,1.8,0.2,2.7c3.9,4.3,4.1,9.5,3.5,14.9
	c-0.2,1.5-1,2.2-2.6,2.4c-2.9,0.3-5.8,0.4-8.6-0.3c-5.8-1.5-9.2-5.3-9.8-11.6c-0.5-4.7-0.4-4.2-4.9-4.2c-2.6,0-2.8,0.2-2.9,2.7
	c-0.1,1.4,0,2.9-0.1,4.3c-0.1,1.2-1.1,2.1-2.2,2.2c-1.3,0.1-2.4-0.9-2.6-2.3c-0.1-0.6-0.1-1.3-0.1-1.9c0-0.8,0-1.6,0-2.4
	c0-0.8,0.1-1.8-0.6-2.2c-1.1-0.6-2.5-0.6-3.7-0.1c-0.3,0.1-0.7,0.7-0.7,1.1c-0.1,1.8-0.1,3.5-0.3,5.3c-0.1,1.5-1.2,2.5-2.4,2.5
	c-1.2,0-2.4-1-2.5-2.4c-0.1-1.6-0.1-3.2-0.1-4.8c-0.1-1.5-0.5-1.9-2.1-1.9c-0.5,0-1,0-1.4,0c-1,0.1-1.4,0.6-1.5,1.5
	c-0.1,1.4,0,2.9-0.1,4.3c0,0.6-0.1,1.3-0.4,1.8c-0.4,0.9-1.3,1.4-2.3,1.4c-1.1-0.1-1.8-0.7-2.1-1.7c-0.2-0.9-0.2-1.9-0.3-2.8
	c-0.1-1.1-0.1-2.2-0.2-3.3c-0.1-0.7-0.6-1.1-1.3-1.2c-0.3,0-0.6,0-1-0.1c-4.8-0.2-4.8-0.2-4.8,4.6c0,2.9,0.1,5.8,0,8.6
	c-0.1,2.2-0.8,3.1-2.8,3.1c-10.3,0.1-19.6-2.6-27.2-9.9c-1.9-1.8-3.3-3.9-4.7-6.1c-1.2-2-1.2-3.8,0-5.8c2.7-4.5,6.4-8,10.8-10.7
	C442.2,1243,448.3,1241.3,454.8,1241.1z M455.5,1260C455.5,1260,455.5,1260,455.5,1260c0-4,0.1-8,0-12c0-1.5-0.6-2-2.1-1.9
	c-6.8,0.7-13.2,2.8-18.2,7.6c-6.4,6.1-6.5,6.3,0.1,12.6c5.1,4.8,11.6,6.6,18.4,7.3c1.1,0.1,1.8-0.4,1.8-1.7
	C455.5,1268,455.5,1264,455.5,1260z M508.3,1262.5c-1.7-0.1-2.5,0.4-2.5,1.5c0.2,6.2,2.6,9.9,10.1,9.9c0.7,0,1.2-0.5,1.2-1.2
	C517.4,1266,514.2,1262.8,508.3,1262.5z M517.1,1249.2c0.1-2.7-0.4-3.2-2.1-3.1c-0.2,0-0.3,0-0.5,0c-6,0.4-8.5,3.5-8.7,9.7
	c0,1.1,0.7,1.7,1.9,1.6c1.3-0.1,2.5-0.4,3.8-0.7c2.5-0.6,4.2-2.2,5-4.7C516.8,1250.8,517,1249.6,517.1,1249.2z"/>
<path fill="#53456A" d="M721.9,1278.7c-7.1,0.2-7.4-0.1-7.5-5.6c0-3-0.1-6.1-0.1-9.1c0-0.9-0.5-1.5-1.5-1.5c-1-0.1-1.9-0.1-2.9-0.1
	c-2.5,0.1-2.7,0.2-2.7,2.8c0,1.3,0,2.6-0.1,3.8c-0.1,1.5-1.1,2.5-2.4,2.6c-1.2,0.1-2.4-1-2.5-2.4c-0.1-1.8-0.1-3.5-0.2-5.3
	c0-0.9-0.6-1.4-1.5-1.5c-0.5,0-1-0.1-1.4,0c-1.7,0.1-2.1,0.4-2.2,2.4c-0.1,1.4,0,2.9-0.1,4.3c-0.1,1.5-1.2,2.5-2.4,2.5
	c-1.2,0-2.3-1.1-2.4-2.5c-0.1-1.6,0-3.2-0.1-4.8c-0.1-1.5-0.5-1.8-2.2-1.9c-0.5,0-1,0-1.4,0c-1,0.1-1.4,0.6-1.5,1.5
	c-0.1,1.1,0,2.2-0.1,3.4c0,0.8-0.1,1.6-0.2,2.4c-0.2,1.1-1.5,2-2.5,1.8c-1-0.1-1.9-0.7-2.1-1.7c-0.3-1.1-0.3-2.2-0.3-3.3
	c0-4.5-0.3-4.1-4.3-4.1c-0.6,0-1.3,0-1.9,0.1c-0.4,0.1-0.8,0.5-0.9,0.9c-0.3,1.4-0.4,2.8-0.7,4.3c-1.2,6.4-5.1,10.2-11.6,10.9
	c-2.1,0.2-4.2,0.1-6.2,0c-1.8-0.1-2.7-0.9-3-2.6c-0.8-4.9-0.3-9.6,2.7-13.7c0.5-0.7,1-1.2,1.6-1.8c0.4-0.4,0.3-0.9,0-1.3
	c-0.2-0.3-0.4-0.5-0.6-0.7c-3.7-4-4.3-8.8-3.8-13.9c0.2-2.6,1-3.3,3.6-3.6c2.9-0.3,5.8-0.2,8.6,0.6c4.5,1.3,7.4,4.3,8.5,8.9
	c0.4,1.7,0.6,3.5,0.8,5.2c0.1,1.2,0.8,1.7,1.9,1.7c0.2,0,0.3,0,0.5,0c4.8,0.2,4.8,0.2,4.9-4.5c0-1.3,0-2.6,0.2-3.8
	c0.2-1.2,1.3-2,2.4-2c1.1,0,2.2,0.8,2.3,2c0.2,2.2,0.2,4.5,0.3,6.7c0,0.7,0.3,1.4,1,1.5c1.2,0.1,2.6,0.6,3.6-0.4
	c0.3-0.3,0.4-0.9,0.4-1.3c0.1-1.9,0-3.8,0.1-5.8c0-0.6,0.3-1.2,0.6-1.7c0.5-0.7,1.2-1,2.1-0.9c0.9,0.1,1.6,0.6,1.8,1.4
	c0.3,1.1,0.3,2.2,0.4,3.3c0.1,1,0,1.9,0,2.9c0.1,2.4,0.5,2.8,2.8,2.8c1.9,0,2.3-0.4,2.4-2.1c0.1-1.9,0-3.8,0.1-5.8
	c0.1-1.5,1.2-2.5,2.4-2.5c1.2,0,2.3,1,2.4,2.5c0.1,2.1,0.1,4.2,0.2,6.2c0,0.9,0.6,1.5,1.5,1.5c1.1,0.1,2.2,0.1,3.4,0
	c1.8-0.1,2.2-0.5,2.2-2.4c0.1-2.7,0-5.4,0.1-8.2c0-1.1,0-2.2,0.1-3.3c0.2-1.7,1.1-2.6,2.9-2.6c12.5,0.1,23.2,4.1,30.8,14.5
	c0.4,0.5,0.7,1.1,1,1.6c1.4,2,1.1,3.8-0.1,5.8c-2.3,3.9-5.4,7.2-9.2,9.7C734,1276.6,727.3,1278.4,721.9,1278.7z M719.6,1259.4
	C719.6,1259.4,719.5,1259.4,719.6,1259.4c0,2.7,0,5.4,0,8.1c0,7.6-0.4,6.6,6.4,5.4c7.1-1.3,13.2-4.6,17.6-10.6
	c1.6-2.1,1.6-2.6,0-4.6c-5.5-7.2-13-10.5-21.8-11.5c-1.7-0.2-2.2,0.3-2.2,2.2C719.5,1252.1,719.6,1255.7,719.6,1259.4z M669.1,1265
	c0.1-1.4-0.3-2.2-1-2.4c-3.5-0.8-8.2,1.5-9.4,4.8c-0.5,1.5-0.6,3.1-0.8,4.7c-0.1,1.1,0.6,1.8,1.7,1.8
	C665.5,1273.9,668.8,1270.8,669.1,1265z M660.3,1246c-0.2,0-0.5,0-0.8,0c-1.1,0-1.7,0.6-1.6,1.9c0,0.9,0.1,1.9,0.3,2.8
	c0.6,3.3,2.5,5.4,5.8,6.1c1.1,0.2,2.2,0.4,3.3,0.5c1.1,0.1,1.7-0.6,1.8-1.7C669.4,1249.8,666.3,1246.4,660.3,1246z"/>
<path fill="#53456A" d="M2212.5,1262.4c0-5.3,4.1-9.4,9.4-9.4c5.2,0,9.5,4.2,9.6,9.3c0.1,5.3-4.4,9.8-9.7,9.7
	C2216.5,1271.9,2212.5,1267.7,2212.5,1262.4z"/>
<path fill="#53456A" d="M444.6,1264.4c-2.9,0-5.2-2.3-5.1-5.2c0.1-2.9,2.5-5.1,5.4-4.9c2.6,0.1,4.8,2.3,4.9,5
	C449.8,1262.1,447.5,1264.4,444.6,1264.4z"/>
<path fill="#53456A" d="M730.6,1264.4c-3,0.1-5.2-2-5.2-5c0-2.9,2.2-5.1,5.1-5.1c2.7,0,4.8,2.1,5,4.8
	C735.6,1262,733.5,1264.3,730.6,1264.4z"/>
</svg>
